<svg width="15" height="14" viewBox="0 0 15 14" fill="none" xmlns="http://www.w3.org/2000/svg">
<g clip-path="url(#clip0_1045_73088)">
<path fill-rule="evenodd" clip-rule="evenodd" d="M13.4953 1.40195H11.3953V0.701953C11.3953 0.516302 11.3216 0.338254 11.1903 0.206978C11.059 0.0757029 10.881 0.00195313 10.6953 0.00195312C10.5097 0.00195313 10.3316 0.0757029 10.2003 0.206978C10.0691 0.338254 9.99531 0.516302 9.99531 0.701953V1.40195H4.39531V0.701953C4.39531 0.516302 4.32156 0.338254 4.19029 0.206978C4.05901 0.0757029 3.88096 0.00195313 3.69531 0.00195312C3.50966 0.00195313 3.33161 0.0757029 3.20034 0.206978C3.06906 0.338254 2.99531 0.516302 2.99531 0.701953V1.40195H0.895312C0.709661 1.40195 0.531613 1.4757 0.400338 1.60698C0.269062 1.73825 0.195313 1.9163 0.195312 2.10195L0.195313 13.302C0.195313 13.4876 0.269062 13.6657 0.400338 13.7969C0.531613 13.9282 0.709661 14.002 0.895312 14.002H13.4953C13.681 14.002 13.859 13.9282 13.9903 13.7969C14.1216 13.6657 14.1953 13.4876 14.1953 13.302V2.10195C14.1953 1.9163 14.1216 1.73825 13.9903 1.60698C13.859 1.4757 13.681 1.40195 13.4953 1.40195ZM1.59531 12.602H12.7953V5.60195H1.59531V12.602ZM1.59531 4.20195H12.7953V2.80195H1.59531V4.20195ZM4.39531 7.00195C4.20966 7.00195 4.03161 7.0757 3.90034 7.20698C3.76906 7.33825 3.69531 7.5163 3.69531 7.70195C3.69531 7.8876 3.76906 8.06565 3.90034 8.19693C4.03161 8.3282 4.20966 8.40195 4.39531 8.40195C4.58096 8.40195 4.75901 8.3282 4.89029 8.19693C5.02156 8.06565 5.09531 7.8876 5.09531 7.70195C5.09531 7.5163 5.02156 7.33825 4.89029 7.20698C4.75901 7.0757 4.58096 7.00195 4.39531 7.00195ZM4.39531 9.80195C4.20966 9.80195 4.03161 9.8757 3.90034 10.007C3.76906 10.1383 3.69531 10.3163 3.69531 10.502C3.69531 10.6876 3.76906 10.8657 3.90034 10.9969C4.03161 11.1282 4.20966 11.202 4.39531 11.202C4.58096 11.202 4.75901 11.1282 4.89029 10.9969C5.02156 10.8657 5.09531 10.6876 5.09531 10.502C5.09531 10.3163 5.02156 10.1383 4.89029 10.007C4.75901 9.8757 4.58096 9.80195 4.39531 9.80195ZM7.19531 9.80195C7.00966 9.80195 6.83161 9.8757 6.70034 10.007C6.56906 10.1383 6.49531 10.3163 6.49531 10.502C6.49531 10.6876 6.56906 10.8657 6.70034 10.9969C6.83161 11.1282 7.00966 11.202 7.19531 11.202C7.38096 11.202 7.55901 11.1282 7.69029 10.9969C7.82156 10.8657 7.89531 10.6876 7.89531 10.502C7.89531 10.3163 7.82156 10.1383 7.69029 10.007C7.55901 9.8757 7.38096 9.80195 7.19531 9.80195ZM7.19531 7.00195C7.00966 7.00195 6.83161 7.0757 6.70034 7.20698C6.56906 7.33825 6.49531 7.5163 6.49531 7.70195C6.49531 7.8876 6.56906 8.06565 6.70034 8.19693C6.83161 8.3282 7.00966 8.40195 7.19531 8.40195C7.38096 8.40195 7.55901 8.3282 7.69029 8.19693C7.82156 8.06565 7.89531 7.8876 7.89531 7.70195C7.89531 7.5163 7.82156 7.33825 7.69029 7.20698C7.55901 7.0757 7.38096 7.00195 7.19531 7.00195ZM9.99531 7.00195C9.80966 7.00195 9.63161 7.0757 9.50034 7.20698C9.36906 7.33825 9.29531 7.5163 9.29531 7.70195C9.29531 7.8876 9.36906 8.06565 9.50034 8.19693C9.63161 8.3282 9.80966 8.40195 9.99531 8.40195C10.181 8.40195 10.359 8.3282 10.4903 8.19693C10.6216 8.06565 10.6953 7.8876 10.6953 7.70195C10.6953 7.5163 10.6216 7.33825 10.4903 7.20698C10.359 7.0757 10.181 7.00195 9.99531 7.00195Z" fill="#31373D"/>
<mask id="mask0_1045_73088" style="mask-type:alpha" maskUnits="userSpaceOnUse" x="0" y="0" width="15" height="15">
<path fill-rule="evenodd" clip-rule="evenodd" d="M13.4953 1.40195H11.3953V0.701953C11.3953 0.516302 11.3216 0.338254 11.1903 0.206978C11.059 0.0757029 10.881 0.00195313 10.6953 0.00195312C10.5097 0.00195313 10.3316 0.0757029 10.2003 0.206978C10.0691 0.338254 9.99531 0.516302 9.99531 0.701953V1.40195H4.39531V0.701953C4.39531 0.516302 4.32156 0.338254 4.19029 0.206978C4.05901 0.0757029 3.88096 0.00195313 3.69531 0.00195312C3.50966 0.00195313 3.33161 0.0757029 3.20034 0.206978C3.06906 0.338254 2.99531 0.516302 2.99531 0.701953V1.40195H0.895312C0.709661 1.40195 0.531613 1.4757 0.400338 1.60698C0.269062 1.73825 0.195313 1.9163 0.195312 2.10195L0.195313 13.302C0.195313 13.4876 0.269062 13.6657 0.400338 13.7969C0.531613 13.9282 0.709661 14.002 0.895312 14.002H13.4953C13.681 14.002 13.859 13.9282 13.9903 13.7969C14.1216 13.6657 14.1953 13.4876 14.1953 13.302V2.10195C14.1953 1.9163 14.1216 1.73825 13.9903 1.60698C13.859 1.4757 13.681 1.40195 13.4953 1.40195ZM1.59531 12.602H12.7953V5.60195H1.59531V12.602ZM1.59531 4.20195H12.7953V2.80195H1.59531V4.20195ZM4.39531 7.00195C4.20966 7.00195 4.03161 7.0757 3.90034 7.20698C3.76906 7.33825 3.69531 7.5163 3.69531 7.70195C3.69531 7.8876 3.76906 8.06565 3.90034 8.19693C4.03161 8.3282 4.20966 8.40195 4.39531 8.40195C4.58096 8.40195 4.75901 8.3282 4.89029 8.19693C5.02156 8.06565 5.09531 7.8876 5.09531 7.70195C5.09531 7.5163 5.02156 7.33825 4.89029 7.20698C4.75901 7.0757 4.58096 7.00195 4.39531 7.00195ZM4.39531 9.80195C4.20966 9.80195 4.03161 9.8757 3.90034 10.007C3.76906 10.1383 3.69531 10.3163 3.69531 10.502C3.69531 10.6876 3.76906 10.8657 3.90034 10.9969C4.03161 11.1282 4.20966 11.202 4.39531 11.202C4.58096 11.202 4.75901 11.1282 4.89029 10.9969C5.02156 10.8657 5.09531 10.6876 5.09531 10.502C5.09531 10.3163 5.02156 10.1383 4.89029 10.007C4.75901 9.8757 4.58096 9.80195 4.39531 9.80195ZM7.19531 9.80195C7.00966 9.80195 6.83161 9.8757 6.70034 10.007C6.56906 10.1383 6.49531 10.3163 6.49531 10.502C6.49531 10.6876 6.56906 10.8657 6.70034 10.9969C6.83161 11.1282 7.00966 11.202 7.19531 11.202C7.38096 11.202 7.55901 11.1282 7.69029 10.9969C7.82156 10.8657 7.89531 10.6876 7.89531 10.502C7.89531 10.3163 7.82156 10.1383 7.69029 10.007C7.55901 9.8757 7.38096 9.80195 7.19531 9.80195ZM7.19531 7.00195C7.00966 7.00195 6.83161 7.0757 6.70034 7.20698C6.56906 7.33825 6.49531 7.5163 6.49531 7.70195C6.49531 7.8876 6.56906 8.06565 6.70034 8.19693C6.83161 8.3282 7.00966 8.40195 7.19531 8.40195C7.38096 8.40195 7.55901 8.3282 7.69029 8.19693C7.82156 8.06565 7.89531 7.8876 7.89531 7.70195C7.89531 7.5163 7.82156 7.33825 7.69029 7.20698C7.55901 7.0757 7.38096 7.00195 7.19531 7.00195ZM9.99531 7.00195C9.80966 7.00195 9.63161 7.0757 9.50034 7.20698C9.36906 7.33825 9.29531 7.5163 9.29531 7.70195C9.29531 7.8876 9.36906 8.06565 9.50034 8.19693C9.63161 8.3282 9.80966 8.40195 9.99531 8.40195C10.181 8.40195 10.359 8.3282 10.4903 8.19693C10.6216 8.06565 10.6953 7.8876 10.6953 7.70195C10.6953 7.5163 10.6216 7.33825 10.4903 7.20698C10.359 7.0757 10.181 7.00195 9.99531 7.00195Z" fill="white"/>
</mask>
<g mask="url(#mask0_1045_73088)">
<path d="M0.195312 0.00195312H14.8953V14.702H0.195312V0.00195312Z" fill="#495B5F"/>
</g>
</g>
<defs>
<clipPath id="clip0_1045_73088">
<rect width="14" height="14" fill="white" transform="translate(0.195312 0.00195312)"/>
</clipPath>
</defs>
</svg>
