<svg width="21" height="20" viewBox="0 0 21 20" fill="none" xmlns="http://www.w3.org/2000/svg">
<g clip-path="url(#clip0_1045_73112)">
<path fill-rule="evenodd" clip-rule="evenodd" d="M10.1953 0.00195312C5.78431 0.00195312 2.19531 3.58995 2.19531 8.00195C2.19531 15.497 9.39231 19.696 9.69931 19.871C9.85025 19.9576 10.0213 20.0032 10.1953 20.0032C10.3694 20.0032 10.5404 19.9576 10.6913 19.871C10.9983 19.696 18.1953 15.497 18.1953 8.00195C18.1953 3.58995 14.6063 0.00195312 10.1953 0.00195312ZM10.1943 17.816C8.67331 16.784 4.19531 13.298 4.19531 8.00195C4.19531 4.69295 6.88631 2.00195 10.1953 2.00195C13.5043 2.00195 16.1953 4.69295 16.1953 8.00195C16.1953 13.279 11.7133 16.781 10.1943 17.816ZM10.1953 10.002C9.09231 10.002 8.19531 9.10495 8.19531 8.00195C8.19531 6.89895 9.09231 6.00195 10.1953 6.00195C11.2983 6.00195 12.1953 6.89895 12.1953 8.00195C12.1953 9.10495 11.2983 10.002 10.1953 10.002ZM10.1953 4.00195C7.98931 4.00195 6.19531 5.79595 6.19531 8.00195C6.19531 10.208 7.98931 12.002 10.1953 12.002C12.4013 12.002 14.1953 10.208 14.1953 8.00195C14.1953 5.79595 12.4013 4.00195 10.1953 4.00195Z" fill="#495B5F"/>
<mask id="mask0_1045_73112" style="mask-type:alpha" maskUnits="userSpaceOnUse" x="2" y="0" width="17" height="21">
<path fill-rule="evenodd" clip-rule="evenodd" d="M10.1953 0.00195312C5.78431 0.00195312 2.19531 3.58995 2.19531 8.00195C2.19531 15.497 9.39231 19.696 9.69931 19.871C9.85025 19.9576 10.0213 20.0032 10.1953 20.0032C10.3694 20.0032 10.5404 19.9576 10.6913 19.871C10.9983 19.696 18.1953 15.497 18.1953 8.00195C18.1953 3.58995 14.6063 0.00195312 10.1953 0.00195312ZM10.1943 17.816C8.67331 16.784 4.19531 13.298 4.19531 8.00195C4.19531 4.69295 6.88631 2.00195 10.1953 2.00195C13.5043 2.00195 16.1953 4.69295 16.1953 8.00195C16.1953 13.279 11.7133 16.781 10.1943 17.816ZM10.1953 10.002C9.09231 10.002 8.19531 9.10495 8.19531 8.00195C8.19531 6.89895 9.09231 6.00195 10.1953 6.00195C11.2983 6.00195 12.1953 6.89895 12.1953 8.00195C12.1953 9.10495 11.2983 10.002 10.1953 10.002ZM10.1953 4.00195C7.98931 4.00195 6.19531 5.79595 6.19531 8.00195C6.19531 10.208 7.98931 12.002 10.1953 12.002C12.4013 12.002 14.1953 10.208 14.1953 8.00195C14.1953 5.79595 12.4013 4.00195 10.1953 4.00195Z" fill="white"/>
</mask>
<g mask="url(#mask0_1045_73112)">
<path d="M0.195312 0.00195312H21.1953V21.002H0.195312V0.00195312Z" fill="#495B5F"/>
</g>
</g>
<defs>
<clipPath id="clip0_1045_73112">
<rect width="20" height="20" fill="white" transform="translate(0.195312 0.00195312)"/>
</clipPath>
</defs>
</svg>
