<svg xmlns="http://www.w3.org/2000/svg" width="21" height="21" viewBox="0 0 21 21" fill="none">
  <path fill-rule="evenodd" clip-rule="evenodd" d="M10.2547 14.5506C10.1234 14.5508 9.99333 14.525 9.872 14.4747C9.75067 14.4244 9.64047 14.3506 9.54773 14.2576L4.54773 9.25763C4.45489 9.16479 4.38124 9.05456 4.33099 8.93326C4.28074 8.81195 4.25488 8.68193 4.25488 8.55063C4.25488 8.41933 4.28074 8.28931 4.33099 8.168C4.38124 8.0467 4.45489 7.93647 4.54773 7.84363C4.64058 7.75079 4.7508 7.67714 4.87211 7.62689C4.99341 7.57664 5.12343 7.55078 5.25473 7.55078C5.38603 7.55078 5.51605 7.57664 5.63736 7.62689C5.75866 7.67714 5.86889 7.75079 5.96173 7.84363L10.2547 12.1366L14.5477 7.84363C14.6406 7.75079 14.7508 7.67714 14.8721 7.62689C14.9934 7.57664 15.1234 7.55078 15.2547 7.55078C15.386 7.55078 15.5161 7.57664 15.6374 7.62689C15.7587 7.67714 15.8689 7.75079 15.9617 7.84363C16.0546 7.93647 16.1282 8.0467 16.1785 8.168C16.2287 8.28931 16.2546 8.41933 16.2546 8.55063C16.2546 8.68193 16.2287 8.81195 16.1785 8.93326C16.1282 9.05456 16.0546 9.16479 15.9617 9.25763L10.9617 14.2576C10.869 14.3506 10.7588 14.4244 10.6375 14.4747C10.5161 14.525 10.3861 14.5508 10.2547 14.5506Z" fill="white"/>
  <mask id="mask0_4055_16835" style="mask-type:alpha" maskUnits="userSpaceOnUse" x="4" y="7" width="13" height="8">
    <path fill-rule="evenodd" clip-rule="evenodd" d="M10.2547 14.5506C10.1234 14.5508 9.99333 14.525 9.872 14.4747C9.75067 14.4244 9.64047 14.3506 9.54773 14.2576L4.54773 9.25763C4.45489 9.16479 4.38124 9.05456 4.33099 8.93326C4.28074 8.81195 4.25488 8.68193 4.25488 8.55063C4.25488 8.41933 4.28074 8.28931 4.33099 8.168C4.38124 8.0467 4.45489 7.93647 4.54773 7.84363C4.64058 7.75079 4.7508 7.67714 4.87211 7.62689C4.99341 7.57664 5.12343 7.55078 5.25473 7.55078C5.38603 7.55078 5.51605 7.57664 5.63736 7.62689C5.75866 7.67714 5.86889 7.75079 5.96173 7.84363L10.2547 12.1366L14.5477 7.84363C14.6406 7.75079 14.7508 7.67714 14.8721 7.62689C14.9934 7.57664 15.1234 7.55078 15.2547 7.55078C15.386 7.55078 15.5161 7.57664 15.6374 7.62689C15.7587 7.67714 15.8689 7.75079 15.9617 7.84363C16.0546 7.93647 16.1282 8.0467 16.1785 8.168C16.2287 8.28931 16.2546 8.41933 16.2546 8.55063C16.2546 8.68193 16.2287 8.81195 16.1785 8.93326C16.1282 9.05456 16.0546 9.16479 15.9617 9.25763L10.9617 14.2576C10.869 14.3506 10.7588 14.4244 10.6375 14.4747C10.5161 14.525 10.3861 14.5508 10.2547 14.5506Z" fill="white"/>
  </mask>
  <g mask="url(#mask0_4055_16835)">
    <path d="M0.254883 0.550781H21.2549V21.5508H0.254883V0.550781Z" fill="white"/>
  </g>
</svg>