<svg xmlns="http://www.w3.org/2000/svg" width="25" height="25" viewBox="0 0 25 25" fill="none">
  <path d="M17.0746 15.347L22.4646 20.747C22.6272 20.9394 22.7111 21.1861 22.6996 21.4378C22.6882 21.6895 22.5821 21.9275 22.4027 22.1044C22.2233 22.2812 21.9838 22.3839 21.732 22.3918C21.4802 22.3997 21.2347 22.3123 21.0446 22.147L15.6646 16.767C14.0573 18.0155 12.0346 18.6046 10.0082 18.4141C7.98188 18.2237 6.10432 17.268 4.75783 15.7419C3.41134 14.2157 2.69718 12.2336 2.76074 10.1994C2.82431 8.16508 3.66083 6.23152 5.09999 4.79237C6.53914 3.35322 8.4727 2.51669 10.507 2.45313C12.5412 2.38956 14.5233 3.10373 16.0495 4.45022C17.5757 5.7967 18.5313 7.67427 18.7217 9.7006C18.9122 11.7269 18.3232 13.7497 17.0746 15.357V15.347ZM10.7546 16.447C12.3459 16.447 13.872 15.8148 14.9972 14.6896C16.1224 13.5644 16.7546 12.0383 16.7546 10.447C16.7546 8.85567 16.1224 7.32955 14.9972 6.20433C13.872 5.07911 12.3459 4.44697 10.7546 4.44697C9.16329 4.44697 7.63717 5.07911 6.51195 6.20433C5.38673 7.32955 4.75459 8.85567 4.75459 10.447C4.75459 12.0383 5.38673 13.5644 6.51195 14.6896C7.63717 15.8148 9.16329 16.447 10.7546 16.447Z" fill="white"/>
</svg>