<svg xmlns="http://www.w3.org/2000/svg" width="25" height="25" viewBox="0 0 25 25" fill="none">
<path d="M12.2549 12.4473C10.9288 12.4473 9.65703 11.9205 8.71935 10.9828C7.78167 10.0451 7.25488 8.77335 7.25488 7.44727C7.25488 6.12118 7.78167 4.84941 8.71935 3.91173C9.65703 2.97405 10.9288 2.44727 12.2549 2.44727C13.581 2.44727 14.8527 2.97405 15.7904 3.91173C16.7281 4.84941 17.2549 6.12118 17.2549 7.44727C17.2549 8.77335 16.7281 10.0451 15.7904 10.9828C14.8527 11.9205 13.581 12.4473 12.2549 12.4473ZM12.2549 10.4473C12.6488 10.4473 13.039 10.3697 13.4029 10.2189C13.7669 10.0681 14.0976 9.84716 14.3762 9.56859C14.6548 9.29001 14.8758 8.95929 15.0265 8.59532C15.1773 8.23134 15.2549 7.84123 15.2549 7.44727C15.2549 7.0533 15.1773 6.66319 15.0265 6.29922C14.8758 5.93524 14.6548 5.60452 14.3762 5.32595C14.0976 5.04737 13.7669 4.82639 13.4029 4.67563C13.039 4.52486 12.6488 4.44727 12.2549 4.44727C11.4592 4.44727 10.6962 4.76334 10.1336 5.32595C9.57095 5.88855 9.25488 6.65162 9.25488 7.44727C9.25488 8.24292 9.57095 9.00598 10.1336 9.56859C10.6962 10.1312 11.4592 10.4473 12.2549 10.4473ZM21.2549 21.4473C21.2549 21.7125 21.1495 21.9668 20.962 22.1544C20.7745 22.3419 20.5201 22.4473 20.2549 22.4473C19.9897 22.4473 19.7353 22.3419 19.5478 22.1544C19.3602 21.9668 19.2549 21.7125 19.2549 21.4473V19.4473C19.2549 18.6516 18.9388 17.8886 18.3762 17.3259C17.8136 16.7633 17.0505 16.4473 16.2549 16.4473H8.25488C7.45923 16.4473 6.69617 16.7633 6.13356 17.3259C5.57095 17.8886 5.25488 18.6516 5.25488 19.4473V21.4473C5.25488 21.7125 5.14953 21.9668 4.96199 22.1544C4.77445 22.3419 4.5201 22.4473 4.25488 22.4473C3.98967 22.4473 3.73531 22.3419 3.54778 22.1544C3.36024 21.9668 3.25488 21.7125 3.25488 21.4473V19.4473C3.25488 18.1212 3.78167 16.8494 4.71935 15.9117C5.65703 14.974 6.9288 14.4473 8.25488 14.4473H16.2549C17.581 14.4473 18.8527 14.974 19.7904 15.9117C20.7281 16.8494 21.2549 18.1212 21.2549 19.4473V21.4473Z" fill="white"/>
</svg>