<svg xmlns="http://www.w3.org/2000/svg" width="25" height="25" viewBox="0 0 25 25" fill="none">
<path d="M12.7549 11.3473C10.4549 10.7473 9.75488 10.1473 9.75488 9.24727C9.75488 8.14727 10.7549 7.44727 12.4549 7.44727C14.2549 7.44727 14.8549 8.24727 14.9549 9.54727H17.1549C17.0549 7.84727 16.0549 6.24727 13.9549 5.74727V3.44727H10.9549V5.64727C9.05488 6.04727 7.45488 7.24727 7.45488 9.24727C7.45488 11.5473 9.35488 12.7473 12.1549 13.3473C14.6549 13.9473 15.1549 14.8473 15.1549 15.7473C15.1549 16.4473 14.6549 17.5473 12.4549 17.5473C10.3549 17.5473 9.55488 16.6473 9.45488 15.4473H7.25488C7.35488 17.6473 9.05488 18.8473 10.9549 19.2473V21.4473H13.9549V19.3473C15.8549 18.9473 17.4549 17.8473 17.4549 15.7473C17.4549 12.9473 15.0549 11.9473 12.7549 11.3473Z" fill="white"/>
</svg>