<svg width="43" height="40" viewBox="0 0 43 40" fill="none" xmlns="http://www.w3.org/2000/svg">
<path d="M40.4456 0.677734H1.94564C0.932721 0.677734 0.112305 1.49815 0.112305 2.51107V37.3444C0.112305 38.3573 0.932721 39.1777 1.94564 39.1777H40.4456C41.4586 39.1777 42.279 38.3573 42.279 37.3444V2.51107C42.279 1.49815 41.4586 0.677734 40.4456 0.677734ZM40.4456 24.5111L31.0104 16.5297C30.5878 16.1098 29.9782 16.2171 29.6666 16.5819L20.4953 27.2812L23.9456 32.5319L10.7686 21.9618C10.4046 21.6712 9.87755 21.6997 9.54755 22.0297L1.94564 28.1777V3.42773C1.94564 2.92082 2.3563 2.51107 2.8623 2.51107H39.529C40.035 2.51107 40.4456 2.92082 40.4456 3.42773V24.5111Z" fill="#C4C4C4"/>
</svg>
