<svg width="20" height="21" viewBox="0 0 20 21" fill="none" xmlns="http://www.w3.org/2000/svg">
<path d="M4.41797 5.44466C3.7513 4.94466 3.5013 3.94466 4.08464 3.19466C4.58464 2.44466 5.66797 2.27799 6.41797 2.77799C7.16797 3.27799 7.33464 4.27799 6.7513 5.11133C6.2513 5.86133 5.2513 6.02799 4.41797 5.44466ZM13.3346 16.6113H7.41797C6.16797 16.6113 5.16797 15.6947 4.91797 14.528L3.33464 6.61133H1.66797L3.33464 14.778C3.66797 16.778 5.41797 18.278 7.41797 18.278H13.3346V16.6113ZM13.5013 13.278H9.5013L8.66797 9.86133C10.0013 10.6113 11.418 11.1113 13.0013 10.8613V9.11133C11.5013 9.36133 10.0013 8.86133 9.0013 8.02799L7.58464 7.02799C7.41797 6.86133 7.2513 6.77799 7.0013 6.69466C6.7513 6.61133 6.41797 6.61133 6.16797 6.61133C5.16797 6.77799 4.5013 7.77799 4.66797 8.77799L5.83464 13.6947C6.0013 14.9447 7.0013 15.778 8.16797 15.778H13.918L17.0846 18.278L18.3346 17.028L13.5013 13.278Z" fill="#818080"/>
</svg>
